<svg width="554" height="245" viewBox="0 0 554 245" fill="none" xmlns="http://www.w3.org/2000/svg">
    <path d="M239.228 76.8643L235.063 64.3967L239.228 51.3986L252.921 43.494L271.883 54.4434C272.466 54.7791 272.7 55.1841 272.7 55.8576V57.5381C251.368 69.8542 260.559 64.5483 239.228 76.8643Z" fill="url(#paint0_linear_0_1)"/>
    <path d="M243.83 76.8876L270.406 92.2333C273.334 93.9225 276.687 93.9225 279.615 92.2333L268.47 116.579L223.514 90.6221C219.477 88.2052 217.173 84.136 217.173 79.4105V64.1233L239.226 51.3893V68.9137C239.226 72.2942 240.902 75.1984 243.83 76.8876Z" fill="url(#paint1_linear_0_1)"/>
    <path d="M279.617 92.2361C295.833 82.874 316.61 70.8785 332.827 61.5164V86.9801L281.553 116.582C277.395 118.984 272.633 118.984 268.472 116.582L246.422 103.85C250.582 106.25 255.342 106.25 259.502 103.85L279.617 92.2361Z" fill="url(#paint2_linear_0_1)"/>
    <path d="M310.772 41.5309L314.213 54.4338L310.772 66.9967L297.08 74.9013L278.116 63.9518C277.533 63.6161 277.3 63.2112 277.3 62.5377V60.8571C298.631 48.5411 289.44 53.8469 310.772 41.5309Z" fill="url(#paint3_linear_0_1)"/>
    <path d="M306.168 41.4917L279.591 26.146C276.663 24.4568 273.31 24.4568 270.383 26.146L281.527 1.79985L326.483 27.7572C330.52 30.1741 332.827 34.2433 332.827 38.9688V54.256L310.772 66.99V49.4656C310.772 46.0851 309.096 43.1809 306.168 41.4917Z" fill="url(#paint4_linear_0_1)"/>
    <path d="M270.382 26.1474C254.165 35.5095 233.388 47.505 217.174 56.8671V31.4013L268.446 1.80127C272.604 -0.600424 277.366 -0.600424 281.526 1.80127L303.577 14.5331C299.419 12.1336 294.656 12.1336 290.496 14.5331L270.382 26.1474Z" fill="url(#paint5_linear_0_1)"/>
    <path d="M279.461 26.0727C276.533 24.3814 273.181 24.3814 270.253 26.0727L290.367 14.4584C294.527 12.0567 299.29 12.0567 303.45 14.4584L309.485 17.9451C305.325 15.5434 300.563 15.5434 296.403 17.9451L280.892 26.9L279.461 26.0727Z" fill="#020C6A"/>
    <path d="M270.411 92.2341C273.339 93.9233 276.692 93.9233 279.62 92.2341L259.505 103.848C255.345 106.248 250.585 106.248 246.425 103.848L240.389 100.362C244.549 102.763 249.309 102.763 253.469 100.362L268.98 91.4068L270.411 92.2341Z" fill="#020C6A"/>
    <path d="M308.871 52.6751C308.505 49.9118 306.82 47.7223 304.243 46.6568L302.872 46.0916C304.353 45.2361 306.093 44.2335 308.174 43.0315C309.848 44.7142 310.772 46.9622 310.772 49.4721V66.9965L308.871 52.6751Z" fill="#01052D"/>
    <path d="M241.128 65.7096C241.496 68.473 243.181 70.6625 245.756 71.728L247.126 72.2932C245.645 73.1486 243.906 74.1513 241.825 75.3532C240.151 73.6705 239.226 71.4226 239.226 68.9126V51.3883L241.128 65.7096Z" fill="#01052D"/>
    <path d="M41.1785 172.884V180.684H25.3785V235.584H41.1785V243.384H0.578516V235.584H16.3785V180.684H0.578516V172.884H41.1785ZM49.748 193.684H58.648V201.984L57.148 207.984H59.648C60.7147 203.317 62.848 199.617 66.048 196.884C69.3147 194.084 73.548 192.684 78.748 192.684C84.548 192.684 89.1147 194.417 92.448 197.884C95.7814 201.35 97.4481 206.484 97.4481 213.284V243.384H88.648V214.484C88.648 209.417 87.648 205.784 85.648 203.584C83.648 201.384 80.5147 200.284 76.248 200.284C70.9814 200.284 66.7147 202.184 63.448 205.984C60.248 209.784 58.648 214.984 58.648 221.584V243.384H49.748V193.684ZM139.116 243.384H119.616C117.283 243.384 115.516 242.817 114.316 241.684C113.183 240.55 112.616 238.784 112.616 236.384V201.284H101.616V193.684H112.616V181.084L121.516 178.384V193.684H137.116V201.284H121.516V235.884L139.116 235.784V243.384ZM143.018 217.884C143.018 209.95 145.184 203.784 149.518 199.384C153.851 194.917 159.618 192.684 166.818 192.684C174.284 192.684 180.184 194.85 184.518 199.184C188.918 203.45 191.118 209.384 191.118 216.984V220.184H151.618C151.751 225.25 153.151 229.384 155.818 232.584C158.551 235.717 162.384 237.284 167.318 237.284C171.451 237.284 174.784 236.284 177.318 234.284C179.918 232.284 181.651 229.517 182.518 225.984H191.318C190.184 231.25 187.684 235.65 183.818 239.184C179.951 242.65 174.484 244.384 167.418 244.384C162.218 244.384 157.784 243.217 154.118 240.884C150.451 238.55 147.684 235.384 145.818 231.384C143.951 227.384 143.018 222.884 143.018 217.884ZM182.418 213.884C182.151 209.417 180.584 205.95 177.718 203.484C174.918 200.95 171.284 199.684 166.818 199.684C162.618 199.684 159.118 200.95 156.318 203.484C153.584 206.017 152.051 209.484 151.718 213.884H182.418ZM200.321 200.584C200.321 195.984 202.654 193.684 207.321 193.684H235.421V201.284H209.221V243.384H200.321V200.584ZM261.18 244.384C253.78 244.384 248.013 242.717 243.88 239.384C239.813 235.984 237.78 231.217 237.78 225.084H246.68C246.68 229.15 247.947 232.217 250.48 234.284C253.013 236.35 256.613 237.384 261.28 237.384C264.813 237.384 267.447 236.817 269.18 235.684C270.98 234.484 271.88 232.617 271.88 230.084C271.88 228.35 271.313 226.95 270.18 225.884C269.047 224.817 267.18 223.95 264.58 223.284L251.28 219.384C247.947 218.45 245.18 216.95 242.98 214.884C240.847 212.75 239.78 209.884 239.78 206.284C239.78 201.95 241.447 198.617 244.78 196.284C248.18 193.884 252.847 192.684 258.78 192.684C265.247 192.684 270.313 194.15 273.98 197.084C277.713 199.95 279.58 204.05 279.58 209.384H270.68C270.68 206.117 269.68 203.684 267.68 202.084C265.68 200.417 262.747 199.584 258.88 199.584C255.613 199.584 253.08 200.15 251.28 201.284C249.48 202.417 248.58 204.05 248.58 206.184C248.58 207.784 249.147 209.117 250.28 210.184C251.413 211.184 253.213 212.05 255.68 212.784L267.28 216.084C271.68 217.35 275.013 219.117 277.28 221.384C279.613 223.65 280.78 226.617 280.78 230.284C280.78 234.817 279.08 238.317 275.68 240.784C272.347 243.184 267.513 244.384 261.18 244.384ZM320.866 243.384H301.366C299.033 243.384 297.266 242.817 296.066 241.684C294.933 240.55 294.366 238.784 294.366 236.384V201.284H283.366V193.684H294.366V181.084L303.266 178.384V193.684H318.866V201.284H303.266V235.884L320.866 235.784V243.384ZM324.768 217.884C324.768 209.95 326.934 203.784 331.268 199.384C335.601 194.917 341.368 192.684 348.568 192.684C356.034 192.684 361.934 194.85 366.268 199.184C370.668 203.45 372.868 209.384 372.868 216.984V220.184H333.368C333.501 225.25 334.901 229.384 337.568 232.584C340.301 235.717 344.134 237.284 349.068 237.284C353.201 237.284 356.534 236.284 359.068 234.284C361.668 232.284 363.401 229.517 364.268 225.984H373.068C371.934 231.25 369.434 235.65 365.568 239.184C361.701 242.65 356.234 244.384 349.168 244.384C343.968 244.384 339.534 243.217 335.868 240.884C332.201 238.55 329.434 235.384 327.568 231.384C325.701 227.384 324.768 222.884 324.768 217.884ZM364.168 213.884C363.901 209.417 362.334 205.95 359.468 203.484C356.668 200.95 353.034 199.684 348.568 199.684C344.368 199.684 340.868 200.95 338.068 203.484C335.334 206.017 333.801 209.484 333.468 213.884H364.168ZM376.632 235.784H390.532V177.484H380.132V169.884H394.232C395.898 169.884 397.165 170.317 398.032 171.184C398.965 171.984 399.432 173.217 399.432 174.884V235.784H413.332V243.384H376.632V235.784ZM418.163 235.784H432.063V177.484H421.663V169.884H435.763C437.43 169.884 438.696 170.317 439.563 171.184C440.496 171.984 440.963 173.217 440.963 174.884V235.784H454.863V243.384H418.163V235.784ZM459.518 229.584C459.518 225.45 460.851 222.15 463.518 219.684C466.251 217.15 470.451 215.617 476.118 215.084L495.618 213.184C495.418 208.65 494.251 205.317 492.118 203.184C489.984 200.984 486.718 199.884 482.318 199.884C478.651 199.884 475.684 200.817 473.418 202.684C471.151 204.55 469.818 207.45 469.418 211.384H460.618C461.151 205.65 463.284 201.117 467.018 197.784C470.818 194.384 475.884 192.684 482.218 192.684C489.351 192.684 494.851 194.684 498.718 198.684C502.584 202.684 504.518 208.017 504.518 214.684V235.784H511.818V243.384H502.718C500.851 243.384 499.384 242.85 498.318 241.784C497.251 240.717 496.718 239.25 496.718 237.384V234.984L498.118 229.684H495.618C494.551 234.017 492.451 237.55 489.318 240.284C486.251 243.017 481.918 244.384 476.318 244.384C469.918 244.384 465.518 242.85 463.118 239.784C460.718 236.717 459.518 233.317 459.518 229.584ZM468.318 228.484C468.318 231.284 469.151 233.417 470.818 234.884C472.484 236.35 474.784 237.084 477.718 237.084C481.251 237.084 484.351 236.317 487.018 234.784C489.751 233.25 491.851 231.15 493.318 228.484C494.851 225.817 495.618 222.817 495.618 219.484L477.618 221.384C474.418 221.717 472.051 222.417 470.518 223.484C469.051 224.484 468.318 226.15 468.318 228.484ZM518.188 200.584C518.188 195.984 520.521 193.684 525.188 193.684H553.288V201.284H527.088V243.384H518.188V200.584Z" fill="white"/>
    <defs>
    <linearGradient id="paint0_linear_0_1" x1="234.32" y1="64.6761" x2="267.543" y2="51.9616" gradientUnits="userSpaceOnUse">
    <stop stop-color="#021B8D"/>
    <stop offset="1" stop-color="#0463EF"/>
    </linearGradient>
    <linearGradient id="paint1_linear_0_1" x1="264.657" y1="128.352" x2="230.853" y2="42.6531" gradientUnits="userSpaceOnUse">
    <stop stop-color="#0049E7"/>
    <stop offset="1" stop-color="#9C00D3"/>
    </linearGradient>
    <linearGradient id="paint2_linear_0_1" x1="340.93" y1="71.355" x2="254.184" y2="115.181" gradientUnits="userSpaceOnUse">
    <stop stop-color="#0049E7"/>
    <stop offset="0.61" stop-color="#1A85F8"/>
    <stop offset="1" stop-color="#66E5FB"/>
    </linearGradient>
    <linearGradient id="paint3_linear_0_1" x1="311.302" y1="43.5558" x2="288.204" y2="70.8061" gradientUnits="userSpaceOnUse">
    <stop stop-color="#021B8D"/>
    <stop offset="1" stop-color="#0463EF"/>
    </linearGradient>
    <linearGradient id="paint4_linear_0_1" x1="285.341" y1="-9.97474" x2="319.144" y2="75.724" gradientUnits="userSpaceOnUse">
    <stop stop-color="#0049E7"/>
    <stop offset="1" stop-color="#7F0085"/>
    </linearGradient>
    <linearGradient id="paint5_linear_0_1" x1="212.431" y1="50.6452" x2="299.057" y2="0.633991" gradientUnits="userSpaceOnUse">
    <stop stop-color="#0131B9"/>
    <stop offset="0.43" stop-color="#078DAB"/>
    <stop offset="1" stop-color="#55F9EF"/>
    </linearGradient>
    </defs>
    </svg>
    